<?xml version="1.0" encoding="utf-8"?>
<!-- Generator: Adobe Illustrator 24.0.0, SVG Export Plug-In . SVG Version: 6.00 Build 0)  -->
<svg version="1.1" id="Layer_1" xmlns="http://www.w3.org/2000/svg" xmlns:xlink="http://www.w3.org/1999/xlink" x="0px" y="0px"
	 viewBox="0 0 580.8 486.4" style="enable-background:new 0 0 580.8 486.4;" xml:space="preserve">
<style type="text/css">
	.st0{fill:none;stroke:#07080E;stroke-linecap:round;stroke-miterlimit:10;}
	.st1{fill:#FFFFFF;}
	.st2{clip-path:url(#SVGID_2_);}
	.st3{fill:#E5E3E3;}
	.st4{fill:#07080E;stroke:#07080E;stroke-miterlimit:10;}
	.st5{fill:none;stroke:#07080E;stroke-miterlimit:10;}
	.st6{clip-path:url(#SVGID_4_);}
	.st7{fill:none;stroke:#0A0505;stroke-miterlimit:10;}
	.st8{fill:#FFFFFF;stroke:#0D0F13;stroke-linecap:round;stroke-miterlimit:10;}
	.st9{fill:#07080E;}
	.st10{clip-path:url(#SVGID_6_);}
	.st11{fill:#FFFFFF;stroke:#0D0F13;stroke-miterlimit:10;}
	.st12{fill:#70685D;stroke:#0A0505;stroke-linecap:round;stroke-miterlimit:10;}
	.st13{fill:none;stroke:#0D0F13;stroke-linecap:round;stroke-miterlimit:10;}
	.st14{clip-path:url(#SVGID_8_);}
	.st15{fill:none;}
	.st16{clip-path:url(#SVGID_10_);}
	.st17{clip-path:url(#SVGID_12_);}
	.st18{fill:none;stroke:#0A0505;stroke-linecap:round;stroke-miterlimit:10;}
	.st19{clip-path:url(#SVGID_14_);}
	.st20{fill:none;stroke:#0A0505;stroke-linecap:round;stroke-miterlimit:10;stroke-dasharray:11.84,11.84;}
	.st21{fill:#70685D;}
</style>
<title>Asset 2</title>
<g id="Layer_2_1_">
	<g id="Layer_1-2">
		<line class="st0" x1="0.5" y1="413.8" x2="195.6" y2="413.8"/>
		<line class="st0" x1="235.6" y1="413.8" x2="285.4" y2="413.8"/>
		<path class="st1" d="M261.7,225.9c0,0,33.8,64.1,25.6,84.6s-59.4,111.1-67,118.9c19.2,12.7,22.7,14.4,22.7,14.4l-49-0.5
			c0,0,49.5-121.1,50.1-134.4"/>
		<g>
			<defs>
				<path id="SVGID_1_" d="M261.7,225.9c0,0,33.8,64.1,25.6,84.6s-59.4,111.1-67,118.9c19.2,12.7,22.7,14.4,22.7,14.4l-49-0.5
					c0,0,49.5-121.1,50.1-134.4"/>
			</defs>
			<clipPath id="SVGID_2_">
				<use xlink:href="#SVGID_1_"  style="overflow:visible;"/>
			</clipPath>
			<g class="st2">
				<polygon class="st3" points="196.8,448 248.8,312.1 224.4,300.7 195.5,377.6 185.4,445.9 				"/>
				<rect x="186.6" y="439.3" class="st4" width="73.1" height="14.2"/>
			</g>
		</g>
		<path class="st5" d="M261.7,225.9c0,0,33.8,64.1,25.6,84.6s-59.4,111.1-67,118.9c19.2,12.7,22.7,14.4,22.7,14.4l-49-0.5
			c0,0,49.5-121.1,50.1-134.4"/>
		<g>
			<defs>
				<path id="SVGID_3_" d="M224.6,63.9c0,0-9,5.7-8.8,15.3c-16,30.4-46.8,138.3-8.3,196.4c5.1-11.7,30-53.8,66.5-53.8
					c-10.1-20.9-34.4-64.7-41.8-122.8C232.1,92.3,224.6,63.9,224.6,63.9z"/>
			</defs>
			<clipPath id="SVGID_4_">
				<use xlink:href="#SVGID_3_"  style="overflow:visible;"/>
			</clipPath>
			<g class="st6">
				<path class="st3" d="M213.1,268.7c0,0-17.3-47.5-15-90.7s11.9-72.2,11.9-72.2l-13.8-9.3l-51.5,132.8l42.4,87.4l25.6-47.2"/>
				<path class="st3" d="M203.7,127.8c0,0-10,44.1,9.1,62.9c13.6,13.4,42.1-22.5,42.1-22.5C268.1,169.5,257.3,171.9,203.7,127.8z"/>
				<path class="st7" d="M203.1,95.8c0,0,7.3,11.8,29.1,3.1s2.5,2.4,2.5,2.4s-13.8,11.4-29.8,1.4S203.1,95.8,203.1,95.8z"/>
				<path class="st7" d="M209.9,100.7l-1.8,3.6l4.3,1.7l1.5-4l4.8,0.2l0.3,4.6c0,0,5.9-0.4,6.8-1.1s-1.1-4.3-1.1-4.3l4.2-1.2
					l2.6,3.2"/>
			</g>
		</g>
		<path class="st7" d="M224.6,63.9c0,0-9,5.7-8.8,15.3c-16,30.4-46.8,138.3-8.3,196.4c5.1-11.7,30-53.8,66.5-53.8
			c-10.1-20.9-34.4-64.7-41.8-122.8C232.1,92.3,224.6,63.9,224.6,63.9z"/>
		<path class="st8" d="M203.8,126.8c0,0-7.7,63,13.9,61.1s34.4-35.7,35.6-36.6c-4.4-1.2-10.8,0.4-15.7-6.9"/>
		<path class="st9" d="M207.4,276.4c1.3,2.4,10.2,4.1,21.9-0.2c-3.1-6.5-9.3-21-9.3-21S207.6,273,207.4,276.4z"/>
		<path class="st1" d="M220,255.2c0,0,74.8,168.4,79.7,187.4c24.5,0.4,41.1,1.4,41.1,1.4l-23.2-14.8l-42.4-123.8l-9-20.8"/>
		<g>
			<defs>
				<path id="SVGID_5_" d="M220,255.2c0,0,74.8,168.4,79.7,187.4c24.5,0.4,41.1,1.4,41.1,1.4l-23.2-14.8l-42.4-123.8l-9-20.8"/>
			</defs>
			<clipPath id="SVGID_6_">
				<use xlink:href="#SVGID_5_"  style="overflow:visible;"/>
			</clipPath>
			<g class="st10">
				<path class="st3" d="M210.9,218.8l101.2,239.7l-37.7,4.8L191,259.5C191,259.5,207.9,225,210.9,218.8z"/>
				<rect x="291.6" y="444.8" class="st4" width="71.4" height="13.5"/>
				<rect x="291.3" y="439.3" class="st4" width="61.8" height="13.4"/>
			</g>
		</g>
		<path class="st5" d="M220,255.2c0,0,74.8,168.4,79.7,187.4c24.5,0.4,41.1,1.4,41.1,1.4l-23.2-14.8l-42.4-123.8l-9-20.8"/>
		<path class="st5" d="M227.1,245.8c0,0,64.6,152.5,64.6,153.8"/>
		<path class="st11" d="M257.1,176.1c0,0-7.9-10.7-9-6.9s6,7.4,3.7,9.9s-15.5,4.1-15.3,6.9s7.4,1.5,9.1,0.6c1.4-0.7,2.8-1.1,4.3-1.4
			c0,0-11.3,4.2-10.9,7s13.3-2,13.3-2s-11.3,2.9-10,7.2c1.1,2,11.5-3.1,11.5-3.1s-7,4.4-2.7,5.1c3.6,0.6,15.8-3.4,14.9-12.9
			S257.1,176.1,257.1,176.1z"/>
		<line class="st0" x1="316.8" y1="413.8" x2="391" y2="413.8"/>
		<line class="st0" x1="396.5" y1="413.8" x2="462.1" y2="413.8"/>
		<path class="st11" d="M235.4,65.1c0,0.1,5.1,10,3.7,16c-0.6,2.9,1.1,9.8-1.5,11.3c-9.9,5.5-15.7-9.8-15.7-9.8"/>
		<polygon class="st1" points="227.4,63.1 232.4,80.3 224.8,80.5 221.3,63.1 		"/>
		<path class="st9" d="M223.1,79.6c0,0-2.7-2.2-3.2,0.3s0.6,6.5-0.5,7.9s-1.9,2.9-3.7,1.1s0.6-18.5,4-21.3c-4.6-0.1-4.2-4.3-3.7-5.6
			c0.3-1.4,1-2.7,1.9-3.8c1.7-1.4,4.1-1.5,5.8-0.2c1.1,0.9,3.1,1.5,1.6,5.2c4.8-2.2,8.5-1.6,11.4-0.4s4.5,2.9,3.5,5.2
			s0.5,5.5-0.9,5.8S234,71,229.8,72S223.3,78.4,223.1,79.6z"/>
		<circle class="st9" cx="236.4" cy="78.3" r="0.7"/>
		<circle class="st9" cx="230.3" cy="78.8" r="0.7"/>
		<line class="st5" x1="244.4" y1="230.9" x2="259.8" y2="259.9"/>
		<path class="st5" d="M282.4,291.4c0,0,5,9.1-1.9,20.1"/>
		<path class="st7" d="M181.6,249c0,0-3.9,31.2,20.7,34.7"/>
		<path class="st7" d="M169.8,250.5c0,0-1.9,16.4,7.5,23.9"/>
		<g>
			<polyline class="st12" points="262.6,127.5 266.6,120.4 260,111.8 245.6,132.5 241.9,137.9 244.2,135.4 			"/>
			<g>
				<path class="st13" d="M253.7,151c0,0,9.9-15.1,11.5-21.4s-4.5-0.6-4.5-0.6"/>
				<path class="st8" d="M258.4,133.8c4.6-7.1,0.3-15.4-1.2-10.5c-2.1,6.7-7.6,15.9-10,16.2c-3.9,0.4,0.3-12.2-2.4-13.1
					c-2.9-1-7.5,17-7.3,18c0,0-10.5,14.2-13.9,12.7s-0.8-11.7-0.8-11.7"/>
			</g>
		</g>
		<path class="st1" d="M244.2,149c-2.5-1-4.7-2.8-6.2-5c0.2-1.6,0.6-3.2,1.2-4.8l4-1.2L244.2,149z"/>
		<path class="st9" d="M274.6,221.9c0,0,4.4,7.9-4.4,16.4c-3.5-5.7-8.2-15.2-8.2-15.2L274.6,221.9z"/>
		<line class="st5" x1="228.9" y1="221.5" x2="241.6" y2="251.6"/>
		<polygon class="st3" points="228.6,260.7 224.5,249.9 220.4,255.1 220.9,256 		"/>
		<line class="st5" x1="246.4" y1="324.8" x2="208.2" y2="421.3"/>
		<g>
			<defs>
				<polygon id="SVGID_7_" points="492.1,60.5 493.2,197.6 542.2,217.2 543,52.9 				"/>
			</defs>
			<clipPath id="SVGID_8_">
				<use xlink:href="#SVGID_7_"  style="overflow:visible;"/>
			</clipPath>
			<g class="st14">
				<rect x="469.6" y="40.8" class="st3" width="28.6" height="209.7"/>
				<line class="st15" x1="493.3" y1="49.3" x2="530.2" y2="223.4"/>
			</g>
		</g>
		<polygon class="st7" points="492.1,60.5 493.2,197.6 542.2,217.2 543,52.9 		"/>
		<line class="st7" x1="535.7" y1="104.4" x2="535.7" y2="198.2"/>
		<line class="st7" x1="501" y1="67.3" x2="501" y2="126"/>
		<polyline class="st7" points="462.1,0 462.1,413.5 580.6,485.9 		"/>
		<path class="st1" d="M50.3,389.7h61.7l0,0v7.2c0,17-13.8,30.9-30.9,30.9l0,0c-17,0-30.9-13.8-30.9-30.9
			C50.3,396.8,50.3,389.7,50.3,389.7z"/>
		<g>
			<defs>
				<path id="SVGID_9_" d="M50.3,389.7h61.7l0,0v7.2c0,17-13.8,30.9-30.9,30.9l0,0c-17,0-30.9-13.8-30.9-30.9
					C50.3,396.8,50.3,389.7,50.3,389.7z"/>
			</defs>
			<clipPath id="SVGID_10_">
				<use xlink:href="#SVGID_9_"  style="overflow:visible;"/>
			</clipPath>
			<g class="st16">
				<path class="st3" d="M60,386.6c0,0-1.4,18.8,6.7,27.9s17.2,17.4,17.2,17.4l-32,0.6l-19.2-19.2l4.3-27.1L60,386.6z"/>
			</g>
		</g>
		<path class="st7" d="M50.3,389.7h61.7l0,0v7.2c0,17-13.8,30.9-30.9,30.9l0,0c-17,0-30.9-13.8-30.9-30.9
			C50.3,396.8,50.3,389.7,50.3,389.7z"/>
		<g>
			<defs>
				<path id="SVGID_11_" d="M72.2,377.5c0,0-29-8.6-19.1-17.5s21.9,3.5,13.1-8.8S40.5,337.6,44.9,326s24.8,13.5,25.4,1.2
					s-17.3-47.4,3.5-42.5s10.5,60.4,16.6,60.9s24.8-10.7,18,8.9s-13,17.3-11.9,22.9"/>
			</defs>
			<clipPath id="SVGID_12_">
				<use xlink:href="#SVGID_11_"  style="overflow:visible;"/>
			</clipPath>
			<g class="st17">
				<path class="st3" d="M81.4,377.9c0,0-25.3-9-23.4-14.6s11.7-4.5,11.7-6.6s0.2-5.8-5.6-12.3s-15-11.5-15-15.4s7.8-3.7,7.8-3.7
					l13.4,2c1.3-6.2,1-12.7-0.8-18.8c-3.1-10.5-3.1-18.7-0.2-20.8s9.5-2.5,9.5-2.5l-21-11.1l-33.1,30.8l2.9,45.6l24.7,27.1
					L81.4,377.9z"/>
			</g>
		</g>
		<path class="st18" d="M72.2,377.5c0,0-29-8.6-19.1-17.5s21.9,3.5,13.1-8.8S40.5,337.6,44.9,326s24.8,13.5,25.4,1.2
			s-17.3-47.4,3.5-42.5s10.5,60.4,16.6,60.9s24.8-10.7,18,8.9s-13,17.3-11.9,22.9"/>
		<path class="st18" d="M72.6,298c0,0,12.8,59.8,12.2,79.3"/>
		<g>
			<defs>
				<rect id="SVGID_13_" x="43.7" y="377.6" width="78.2" height="12"/>
			</defs>
			<clipPath id="SVGID_14_">
				<use xlink:href="#SVGID_13_"  style="overflow:visible;"/>
			</clipPath>
			<g class="st19">
				<rect x="36.3" y="371.5" class="st3" width="10" height="23.5"/>
				<rect x="39.7" y="387.6" class="st3" width="86.6" height="4.2"/>
			</g>
		</g>
		<rect x="43.7" y="377.6" class="st7" width="78.2" height="12"/>
		<path class="st18" d="M39.3,329.4c0,0-1.3,7.5,5.3,9.6"/>
		<path class="st18" d="M115,349.7c0,0,2-7.4-4.4-10"/>
		<line class="st15" x1="273.8" y1="124.3" x2="487.1" y2="124.3"/>
		<line class="st18" x1="273.8" y1="124.3" x2="279.8" y2="124.3"/>
		<line class="st20" x1="291.7" y1="124.3" x2="475.1" y2="124.3"/>
		<line class="st18" x1="481.1" y1="124.3" x2="487.1" y2="124.3"/>
		<path class="st21" d="M246,134.3c0,0-0.5,4.5,0.9,4.7s4.4-4,6.3-7.7S246,134.3,246,134.3z"/>
	</g>
</g>
</svg>
