<?xml version="1.0" encoding="UTF-8"?>
<svg width="345px" height="345px" viewBox="0 0 345 345" version="1.1" xmlns="http://www.w3.org/2000/svg" xmlns:xlink="http://www.w3.org/1999/xlink">
    <!-- Generator: Sketch 53.2 (72643) - https://sketchapp.com -->
    <title>mirror</title>
    <desc>Created with Sketch.</desc>
    <g id="Page-1" stroke="none" stroke-width="1" fill="none" fill-rule="evenodd">
        <g id="mirror" fill="#91ABD6" fill-rule="nonzero">
            <path d="M172.107222,26 L171.86046,26 C168.053579,26.0169 164.982157,28.9406 165.000078,32.53055 C165.016621,36.10945 168.09976,39 171.891478,39 C171.902506,39 171.913535,39 171.924563,39 L172.107222,39 C175.914103,39 179,36.08995 179,32.5 C179,28.91005 175.914103,26 172.107222,26 Z" id="Path"></path>
            <path d="M281.749041,45.1944144 C252.568107,16.0506173 213.769716,0 172.5,0 C131.230284,0 92.431893,16.0506173 63.2509585,45.1944144 C34.070024,74.3382116 18,113.089469 18,154.306942 C18,188.122399 28.7482074,220.227002 49.0828362,247.149858 C68.4122031,272.7419 95.7560044,292.010727 126.220166,301.561585 L132.272653,339.32703 C132.796873,342.595777 135.620378,345 138.935044,345 L206.066306,345 C209.380972,345 212.204476,342.595777 212.728697,339.32703 L218.779834,301.56765 C249.057111,292.070024 276.230895,273.00402 295.547443,247.63771 C316.123605,220.617823 327,188.344089 327,154.306942 C327,113.089469 310.929301,74.3388854 281.749041,45.1944144 Z M131.444155,257.607691 C121.749111,243.354176 116.846941,227.848013 114.411373,216.969711 C124.32771,224.02201 138.261046,235.543819 148.375061,250.413214 C148.648978,250.816164 148.960677,251.17801 149.300037,251.501448 C149.769609,255.343624 150.413921,259.220164 151.226227,263.118268 L137.101284,263.118268 C136.372638,262.881754 135.647365,262.639175 134.925465,262.388511 C133.707681,260.809054 132.53645,259.212752 131.444155,257.607691 Z M200.312699,331.524085 L144.687301,331.524085 L135.924655,276.846195 C136.483284,276.989721 208.516041,276.989721 209.075345,276.846195 L200.312699,331.524085 Z M161.836127,236.163069 C161.822633,215.733234 167.731415,197.401704 172.465592,185.997141 C177.216635,197.395639 183.149705,215.715714 183.163199,236.144201 C183.169271,244.858164 182.105987,253.910388 179.99831,263.117594 L179.798607,263.117594 L165.200718,263.117594 L165.034749,263.117594 C162.916277,253.917801 161.842199,244.872314 161.836127,236.163069 Z M213.555845,257.607691 C212.46355,259.213426 211.291644,260.809728 210.074535,262.388511 C209.352635,262.639175 208.627362,262.881754 207.898716,263.118268 L193.803459,263.118268 C194.729109,258.650779 195.430094,254.213612 195.905738,249.822265 C206.178976,234.971738 220.575138,223.510573 230.690502,216.599105 C228.295415,227.469995 223.398642,243.13653 213.555845,257.607691 Z M221.192463,286.508909 L223.588225,271.561351 C243.671876,262.791461 261.504819,248.829041 274.790469,231.269719 C291.699786,208.922166 300.637847,182.264799 300.637847,154.180262 C300.637847,125.733878 291.490638,98.8015895 274.184614,76.2956861 C257.429797,54.5067373 233.700216,38.4204071 207.367074,30.9988496 C203.78119,29.9874316 200.053624,32.0722599 199.041616,35.6536634 C198.029607,39.2350669 200.116369,42.9579745 203.702253,43.9687187 C252.831229,57.8138922 287.143723,103.134987 287.143723,154.180262 C287.143723,194.24953 265.739063,231.077004 232.639631,251.627454 C244.710197,227.474712 246.287581,204.728925 246.359096,203.600261 C246.511572,201.175149 245.345738,198.855828 243.306878,197.530405 C241.268017,196.204309 238.671878,196.078303 236.5136,197.198881 C235.432775,197.760181 214.527373,208.755056 196.378009,227.961217 C194.132699,194.155867 178.955266,168.17233 178.260354,166.999193 C177.045943,164.950078 174.83909,163.693386 172.454797,163.693386 C172.453448,163.693386 172.451424,163.693386 172.450074,163.693386 C170.063758,163.694734 167.856229,164.955469 166.644517,167.007279 C165.944207,168.192545 150.50905,194.705038 148.548452,229.004305 C130.478699,209.193719 109.63874,197.818131 108.57883,197.246723 C106.421227,196.083694 103.802148,196.181399 101.736976,197.501431 C99.6718035,198.821463 98.4870786,201.156282 98.6409039,203.599587 C98.7124192,204.728251 100.289803,227.474038 112.360369,251.626781 C79.2609367,231.077004 57.8562773,194.24953 57.8562773,154.180262 C57.8562773,103.399802 90.5070524,59.3670691 139.103037,44.6108781 C142.668007,43.5287081 144.67988,39.7646968 143.595681,36.204182 C142.512157,32.6436673 138.744786,30.6329602 135.178467,31.7171518 C109.445109,39.530878 86.3200349,55.7142397 70.0617773,77.2862154 C53.2496135,99.5946867 44.3628275,126.183996 44.3628275,154.179588 C44.3628275,182.264126 53.3008886,208.920818 70.2095306,231.268372 C83.4958559,248.827693 101.328799,262.790787 121.41245,271.560677 L123.808212,286.510257 C69.0578646,266.343216 31.4934498,213.137643 31.4934498,154.306942 C31.4934498,76.6528157 94.7487183,13.4765888 172.5,13.4765888 C250.251282,13.4765888 313.50655,76.6528157 313.50655,154.306942 C313.50655,213.279821 275.992061,266.337151 221.192463,286.508909 Z" id="Shape"></path>
            <path d="M242.035616,162.549503 L168.45044,88.9643652 C165.831261,86.3452116 161.584904,86.3452116 158.964384,88.9643652 C156.345205,91.5835188 156.345205,95.8305049 158.964384,98.4496586 L232.550231,172.035467 C233.860156,173.345379 235.57654,174 237.292923,174 C239.009307,174 240.726362,173.345379 242.035616,172.035467 C244.654795,169.416313 244.654795,165.169327 242.035616,162.549503 Z" id="Path"></path>
            <path d="M145.012954,109.417604 L126.582534,90.986993 C123.93314,88.337669 119.637118,88.337669 116.987046,90.986993 C114.337651,93.6363169 114.337651,97.9322245 116.987046,100.582227 L135.418145,119.012837 C136.743181,120.337839 138.479365,121 140.21555,121 C141.951734,121 143.688597,120.337839 145.012954,119.012837 C147.662349,116.363513 147.662349,112.067606 145.012954,109.417604 Z" id="Path"></path>
            <path d="M161.944108,126.087919 L161.884167,126.027282 C159.154749,123.313243 154.742097,123.325788 152.027315,126.055858 C149.313231,128.785231 149.325777,133.198506 152.055892,135.912546 L152.115833,135.972486 C153.475663,137.324627 155.252991,138 157.030319,138 C158.820193,138 160.610763,137.314172 161.972685,135.944607 C164.686769,133.215234 164.674223,128.801958 161.944108,126.087919 Z" id="Path"></path>
            <path d="M197.021905,161.469967 L177.529687,141.978126 C174.892227,139.340625 170.615556,139.340625 167.978095,141.978126 C165.340635,144.615627 165.340635,148.892363 167.978095,151.529864 L187.470313,171.021705 C188.789381,172.340794 190.517745,173 192.246109,173 C193.974473,173 195.703512,172.340118 197.021905,171.021705 C199.659365,168.384204 199.659365,164.107468 197.021905,161.469967 Z" id="Path"></path>
            <path d="M338.261719,332 L6.73828125,332 C3.01672852,332 0,334.91005 0,338.5 C0,342.08995 3.01672852,345 6.73828125,345 L338.261719,345 C341.983271,345 345,342.08995 345,338.5 C345,334.91005 341.983271,332 338.261719,332 Z" id="Path"></path>
        </g>
    </g>
</svg>