<svg xmlns="http://www.w3.org/2000/svg" xmlns:xlink="http://www.w3.org/1999/xlink" viewBox="0 0 457.16 158.3"><defs><style>.cls-1,.cls-2,.cls-3,.cls-7{fill:none;}.cls-2,.cls-7{stroke:#0a0505;}.cls-2,.cls-3{stroke-linecap:round;}.cls-2,.cls-3,.cls-7{stroke-miterlimit:10;}.cls-3{stroke:#07080e;}.cls-4{fill:#fff;}.cls-5{clip-path:url(#clip-path);}.cls-6{fill:#e5e3e3;}.cls-8{clip-path:url(#clip-path-2);}.cls-9{clip-path:url(#clip-path-3);}.cls-10{clip-path:url(#clip-path-4);}</style><clipPath id="clip-path" transform="translate(0 9.65)"><path class="cls-1" d="M197.26,105.9H259v7.16a30.87,30.87,0,0,1-30.86,30.87h0a30.88,30.88,0,0,1-30.87-30.87Z"/></clipPath><clipPath id="clip-path-2" transform="translate(0 9.65)"><path class="cls-1" d="M219.15,93.7s-29-8.57-19.07-17.49S222,79.7,213.2,67.46s-25.72-13.65-21.34-25.24,24.84,13.47,25.37,1.23S199.93-3.93,220.73,1s10.5,60.36,16.62,60.89,24.84-10.67,18,8.92-13,17.32-11.9,22.92"/></clipPath><clipPath id="clip-path-3" transform="translate(0 9.65)"><rect class="cls-1" x="190.59" y="93.81" width="78.25" height="12.03"/></clipPath><clipPath id="clip-path-4" transform="translate(0 9.65)"><path class="cls-2" d="M230.06,134c5.13-5.79,19.16-15.5,11.61-21-6-4.37-11.18,4-11.52,4.82-.24-.82-3.39-9.4-11.16-4.82-8.36,4.93,5.95,15.24,11.07,21"/></clipPath></defs><title>noHeartbeat_1</title><g id="Layer_2" data-name="Layer 2"><g id="plant"><line class="cls-3" x1="0.5" y1="140.65" x2="195.65" y2="140.65"/><line class="cls-3" x1="259.28" y1="140.47" x2="456.66" y2="140.47"/><rect class="cls-3" x="30.12" y="89.59" width="11.86" height="50.73"/><rect class="cls-3" x="45.2" y="106.29" width="12.34" height="34.03"/><rect class="cls-3" x="60.28" y="96.13" width="12.34" height="44.19"/><rect class="cls-3" x="74.97" y="113.84" width="12.34" height="26.84"/><rect class="cls-3" x="89.65" y="76.24" width="12.34" height="64.44"/><rect class="cls-3" x="103.99" y="89.59" width="11.86" height="50.73"/><rect class="cls-3" x="119.08" y="106.29" width="12.34" height="34.03"/><rect class="cls-3" x="134.16" y="96.13" width="12.34" height="44.19"/><rect class="cls-3" x="148.84" y="99.3" width="12.34" height="41.38"/><rect class="cls-3" x="163.53" y="76.24" width="12.34" height="64.44"/><rect class="cls-3" x="280.46" y="115.01" width="11.86" height="25.31"/><rect class="cls-3" x="295.54" y="97.64" width="12.34" height="42.68"/><rect class="cls-3" x="310.62" y="85.86" width="12.34" height="54.46"/><rect class="cls-3" x="325.3" y="103.92" width="12.34" height="36.76"/><rect class="cls-3" x="339.99" y="86.98" width="12.34" height="53.7"/><rect class="cls-3" x="354.33" y="110.56" width="11.86" height="29.76"/><rect class="cls-3" x="369.42" y="100.31" width="12.34" height="40.01"/><rect class="cls-3" x="384.5" y="91.33" width="12.34" height="48.99"/><rect class="cls-3" x="399.18" y="113.66" width="12.34" height="27.02"/><rect class="cls-3" x="413.87" y="91.63" width="12.34" height="49.04"/><path class="cls-4" d="M197.26,105.9H259v7.16a30.87,30.87,0,0,1-30.86,30.87h0a30.88,30.88,0,0,1-30.87-30.87Z" transform="translate(0 9.65)"/><g class="cls-5"><path class="cls-6" d="M206.93,102.78s-1.39,18.79,6.72,27.88,17.2,17.4,17.2,17.4l-32,.59-19.22-19.18L184,102.39Z" transform="translate(0 9.65)"/></g><path class="cls-7" d="M197.26,105.9H259v7.16a30.87,30.87,0,0,1-30.86,30.87h0a30.88,30.88,0,0,1-30.87-30.87Z" transform="translate(0 9.65)"/><g class="cls-8"><path class="cls-6" d="M228.31,94.13s-25.28-9-23.43-14.59S216.6,75,216.6,73s.2-5.75-5.55-12.33-15-11.51-15-15.42,7.81-3.7,7.81-3.7l13.38,2a37.91,37.91,0,0,0-.84-18.83c-3.08-10.49-3.08-18.71-.21-20.76s9.46-2.47,9.46-2.47l-21-11.1L171.58,21.16l2.88,45.63,24.66,27.14Z" transform="translate(0 9.65)"/></g><path class="cls-2" d="M219.15,93.7s-29-8.57-19.07-17.49S222,79.7,213.2,67.46s-25.72-13.65-21.34-25.24,24.84,13.47,25.37,1.23S199.93-3.93,220.73,1s10.5,60.36,16.62,60.89,24.84-10.67,18,8.92-13,17.32-11.9,22.92" transform="translate(0 9.65)"/><path class="cls-2" d="M219.5,14.27s12.77,59.84,12.25,79.26" transform="translate(0 9.65)"/><g class="cls-9"><rect class="cls-6" x="183.24" y="97.39" width="10.01" height="23.55"/><rect class="cls-6" x="186.63" y="113.46" width="86.58" height="4.16"/></g><rect class="cls-7" x="190.59" y="103.46" width="78.25" height="12.03"/><g class="cls-10"><path class="cls-6" d="M224.92,132.74s14.31-9.78,14.18-13.63-1.93-6.88-5.24-6.75.28-7.7.28-7.7l13.35,6.88L247.22,129l-14.73,7.84Z" transform="translate(0 9.65)"/></g><path class="cls-2" d="M230.06,134c5.13-5.79,19.16-15.5,11.61-21-6-4.37-11.18,4-11.52,4.82-.24-.82-3.39-9.4-11.16-4.82-8.36,4.93,5.95,15.24,11.07,21" transform="translate(0 9.65)"/><line class="cls-7" x1="217.06" y1="141.18" x2="247.63" y2="119.5"/></g></g></svg>