<svg xmlns="http://www.w3.org/2000/svg" xmlns:xlink="http://www.w3.org/1999/xlink" viewBox="0 0 580.83 486.36"><defs><style>.cls-1,.cls-13,.cls-16,.cls-3,.cls-7{fill:#fff;}.cls-1,.cls-10,.cls-11,.cls-6{stroke:#07080e;}.cls-1,.cls-10,.cls-11,.cls-13,.cls-16,.cls-17,.cls-2,.cls-23,.cls-3,.cls-4,.cls-5,.cls-6{stroke-miterlimit:10;}.cls-11,.cls-17,.cls-2,.cls-23,.cls-4,.cls-6{fill:none;}.cls-2,.cls-23,.cls-3,.cls-4,.cls-5{stroke:#0a0505;}.cls-13,.cls-17,.cls-23,.cls-4,.cls-5,.cls-6{stroke-linecap:round;}.cls-22,.cls-5{fill:#70685d;}.cls-8{clip-path:url(#clip-path);}.cls-9{fill:#e5e3e3;}.cls-10,.cls-14{fill:#07080e;}.cls-12{clip-path:url(#clip-path-2);}.cls-13,.cls-16,.cls-17{stroke:#0d0f13;}.cls-15{clip-path:url(#clip-path-3);}.cls-18{clip-path:url(#clip-path-4);}.cls-19{clip-path:url(#clip-path-5);}.cls-20{clip-path:url(#clip-path-6);}.cls-21{clip-path:url(#clip-path-7);}.cls-23{stroke-dasharray:11.84 11.84;}</style><clipPath id="clip-path"><path class="cls-1" d="M261.72,225.91s33.8,64.13,25.64,84.59-59.45,111.13-67,118.87c19.23,12.71,22.73,14.37,22.73,14.37l-49-.55s49.54-121.08,50.12-134.35"/></clipPath><clipPath id="clip-path-2"><path class="cls-2" d="M224.55,63.94s-9,5.69-8.82,15.25c-16,30.39-46.81,138.29-8.3,196.4,5.07-11.67,30-53.83,66.53-53.83-10.14-20.95-34.38-64.7-41.81-122.82C232.15,92.35,224.55,63.94,224.55,63.94Z"/></clipPath><clipPath id="clip-path-3"><path class="cls-1" d="M220,255.18s74.83,168.39,79.67,187.38c24.51.35,41.08,1.38,41.08,1.38L317.57,429.1,275.21,305.26l-9-20.8"/></clipPath><clipPath id="clip-path-4"><polygon class="cls-2" points="492.11 60.49 493.19 197.57 542.25 217.19 543.02 52.9 492.11 60.49"/></clipPath><clipPath id="clip-path-5"><path class="cls-3" d="M50.33,389.68h61.73a0,0,0,0,1,0,0v7.16A30.87,30.87,0,0,1,81.2,427.71h0a30.87,30.87,0,0,1-30.87-30.87v-7.16A0,0,0,0,1,50.33,389.68Z"/></clipPath><clipPath id="clip-path-6"><path class="cls-4" d="M72.22,377.48s-29-8.57-19.07-17.49,21.87,3.49,13.12-8.75S40.55,337.59,44.93,326s24.84,13.47,25.37,1.23S53,279.85,73.8,284.75s10.5,60.36,16.62,60.89,24.84-10.67,18,8.92-13,17.32-11.9,22.92"/></clipPath><clipPath id="clip-path-7"><rect class="cls-2" x="43.66" y="377.59" width="78.25" height="12.03"/></clipPath></defs><title>Asset 2</title><g id="Layer_2" data-name="Layer 2"><g id="Layer_1-2" data-name="Layer 1"><polyline class="cls-5" points="262.57 127.51 266.62 120.43 260.03 111.76 245.63 132.53 241.88 137.94 244.24 135.35"/><line class="cls-6" x1="0.5" y1="413.76" x2="195.65" y2="413.76"/><line class="cls-6" x1="235.58" y1="413.76" x2="285.41" y2="413.76"/><path class="cls-7" d="M261.72,225.91s33.8,64.13,25.64,84.59-59.45,111.13-67,118.87c19.23,12.71,22.73,14.37,22.73,14.37l-49-.55s49.54-121.08,50.12-134.35"/><g class="cls-8"><polygon class="cls-9" points="196.77 447.98 248.83 312.12 224.43 300.73 195.54 377.61 185.38 445.94 196.77 447.98"/><rect class="cls-10" x="186.64" y="439.27" width="73.05" height="14.19"/></g><path class="cls-11" d="M261.72,225.91s33.8,64.13,25.64,84.59-59.45,111.13-67,118.87c19.23,12.71,22.73,14.37,22.73,14.37l-49-.55s49.54-121.08,50.12-134.35"/><g class="cls-12"><path class="cls-9" d="M213.06,268.7s-17.27-47.5-15-90.67S210,105.87,210,105.87L196.24,96.6,144.75,229.39l42.38,87.44,25.58-47.16"/><path class="cls-9" d="M203.73,127.8s-10,44.09,9.05,62.87c13.6,13.39,42.14-22.5,42.14-22.5C268.08,169.51,257.29,171.86,203.73,127.8Z"/><path class="cls-2" d="M203.09,95.82s7.31,11.76,29.06,3.12,2.47,2.39,2.47,2.39-13.78,11.37-29.8,1.38S203.09,95.82,203.09,95.82Z"/><path class="cls-2" d="M209.89,100.71l-1.77,3.56,4.27,1.72,1.47-4,4.84.22.29,4.55s5.94-.44,6.75-1.1-1.08-4.3-1.08-4.3l4.23-1.2,2.57,3.15"/></g><path class="cls-2" d="M224.55,63.94s-9,5.69-8.82,15.25c-16,30.39-46.81,138.29-8.3,196.4,5.07-11.67,30-53.83,66.53-53.83-10.14-20.95-34.38-64.7-41.81-122.82C232.15,92.35,224.55,63.94,224.55,63.94Z"/><path class="cls-13" d="M203.76,126.78s-7.69,63,13.87,61.08S252,152.2,253.24,151.25c-4.38-1.23-10.78.37-15.72-6.92"/><path class="cls-14" d="M207.37,276.4c1.28,2.36,10.21,4.12,21.89-.19-3.06-6.46-9.31-21-9.31-21S207.56,273,207.37,276.4Z"/><path class="cls-7" d="M220,255.18s74.83,168.39,79.67,187.38c24.51.35,41.08,1.38,41.08,1.38L317.57,429.1,275.21,305.26l-9-20.8"/><g class="cls-15"><path class="cls-9" d="M210.94,218.78,312.19,458.46l-37.71,4.81L191,259.46S207.92,225,210.94,218.78Z"/><rect class="cls-10" x="291.59" y="444.76" width="71.36" height="13.48"/><rect class="cls-10" x="291.27" y="439.32" width="61.75" height="13.35"/></g><path class="cls-11" d="M220,255.18s74.83,168.39,79.67,187.38c24.51.35,41.08,1.38,41.08,1.38L317.57,429.1,275.21,305.26l-9-20.8"/><path class="cls-11" d="M227.15,245.79S291.8,398.27,291.8,399.61"/><path class="cls-16" d="M257.1,176.08s-7.91-10.66-9-6.94,6,7.35,3.67,9.9-15.52,4.14-15.26,6.85,7.38,1.48,9.14.56A19.78,19.78,0,0,1,250,185s-11.34,4.22-10.88,7,13.27-2,13.27-2-11.27,2.92-10,7.17c1.08,2,11.52-3.07,11.52-3.07s-7,4.35-2.73,5.11c3.55.62,15.8-3.42,14.9-12.9S257.1,176.08,257.1,176.08Z"/><line class="cls-6" x1="316.76" y1="413.76" x2="390.97" y2="413.76"/><line class="cls-6" x1="396.51" y1="413.76" x2="462.12" y2="413.76"/><path class="cls-16" d="M235.37,65.12c0,.1,5.08,10,3.73,16-.65,2.89,1.05,9.82-1.5,11.26-9.87,5.53-15.71-9.78-15.71-9.78"/><polygon class="cls-7" points="227.41 63.09 232.36 80.34 224.75 80.47 221.32 63.09 227.41 63.09"/><path class="cls-14" d="M223.11,79.55s-2.74-2.24-3.21.32.57,6.46-.48,7.88-1.9,2.94-3.7,1.14.57-18.51,4-21.26c-4.56-.1-4.18-4.28-3.71-5.61a9.25,9.25,0,0,1,1.87-3.76,4.76,4.76,0,0,1,5.82-.22c1.06.89,3.14,1.52,1.62,5.22,4.84-2.18,8.54-1.62,11.39-.38s4.46,2.94,3.51,5.22.49,5.51-.94,5.79S234,71,229.77,72,223.3,78.37,223.11,79.55Z"/><circle class="cls-14" cx="236.45" cy="78.35" r="0.74"/><circle class="cls-14" cx="230.29" cy="78.84" r="0.74"/><line class="cls-11" x1="244.38" y1="230.95" x2="259.81" y2="259.91"/><path class="cls-11" d="M282.36,291.42s5,9.08-1.94,20.08"/><path class="cls-2" d="M181.55,249s-3.93,31.23,20.7,34.66"/><path class="cls-2" d="M169.75,250.47s-1.88,16.43,7.54,23.87"/><path class="cls-17" d="M253.7,151s9.93-15.13,11.49-21.41-4.51-.6-4.51-.6"/><path class="cls-13" d="M258.42,133.83c4.57-7.09.29-15.37-1.2-10.52-2.06,6.67-7.59,15.91-10,16.16-3.85.41.34-12.16-2.35-13.14-2.87-1-7.51,17-7.31,18,0,0-10.48,14.23-13.89,12.66s-.79-11.72-.79-11.72"/><path class="cls-7" d="M244.16,149a13.52,13.52,0,0,1-6.16-5,20.82,20.82,0,0,1,1.24-4.78l4-1.16Z"/><path class="cls-14" d="M274.57,221.89s4.43,7.85-4.4,16.42c-3.49-5.72-8.22-15.19-8.22-15.19Z"/><line class="cls-11" x1="228.95" y1="221.54" x2="241.58" y2="251.63"/><polygon class="cls-9" points="228.65 260.73 224.52 249.87 220.43 255.07 220.88 255.97 228.65 260.73"/><line class="cls-11" x1="246.37" y1="324.78" x2="208.17" y2="421.28"/><g class="cls-18"><rect class="cls-9" x="469.61" y="40.85" width="28.59" height="209.68"/><line class="cls-9" x1="493.32" y1="49.26" x2="530.23" y2="223.39"/></g><polygon class="cls-2" points="492.11 60.49 493.19 197.57 542.25 217.19 543.02 52.9 492.11 60.49"/><line class="cls-2" x1="535.65" y1="104.39" x2="535.65" y2="198.19"/><line class="cls-2" x1="501.05" y1="67.31" x2="501.05" y2="126.01"/><polyline class="cls-2" points="462.12 0 462.12 413.46 580.57 485.94"/><path class="cls-7" d="M50.33,389.68h61.73a0,0,0,0,1,0,0v7.16A30.87,30.87,0,0,1,81.2,427.71h0a30.87,30.87,0,0,1-30.87-30.87v-7.16A0,0,0,0,1,50.33,389.68Z"/><g class="cls-19"><path class="cls-9" d="M60,386.56s-1.39,18.79,6.72,27.88,17.2,17.4,17.2,17.4l-32,.59L32.7,413.25l4.35-27.08Z"/></g><path class="cls-2" d="M50.33,389.68h61.73a0,0,0,0,1,0,0v7.16A30.87,30.87,0,0,1,81.2,427.71h0a30.87,30.87,0,0,1-30.87-30.87v-7.16A0,0,0,0,1,50.33,389.68Z"/><g class="cls-20"><path class="cls-9" d="M81.38,377.91s-25.28-9-23.43-14.59,11.72-4.52,11.72-6.58.2-5.75-5.55-12.33-15-11.51-15-15.42,7.81-3.7,7.81-3.7l13.38,2a38,38,0,0,0-.84-18.83c-3.08-10.49-3.08-18.71-.21-20.76s9.46-2.47,9.46-2.47l-21-11.1L24.65,304.94l2.88,45.63,24.66,27.14Z"/></g><path class="cls-4" d="M72.22,377.48s-29-8.57-19.07-17.49,21.87,3.49,13.12-8.75S40.55,337.59,44.93,326s24.84,13.47,25.37,1.23S53,279.85,73.8,284.75s10.5,60.36,16.62,60.89,24.84-10.67,18,8.92-13,17.32-11.9,22.92"/><path class="cls-4" d="M72.57,298.05s12.77,59.84,12.25,79.26"/><g class="cls-21"><rect class="cls-9" x="36.31" y="371.52" width="10.01" height="23.55"/><rect class="cls-9" x="39.7" y="387.59" width="86.58" height="4.16"/></g><rect class="cls-2" x="43.66" y="377.59" width="78.25" height="12.03"/><path class="cls-4" d="M39.32,329.35s-1.26,7.55,5.28,9.56"/><path class="cls-4" d="M115,349.69s2-7.4-4.36-10"/><line class="cls-22" x1="273.83" y1="124.33" x2="487.07" y2="124.33"/><line class="cls-4" x1="273.83" y1="124.33" x2="279.83" y2="124.33"/><line class="cls-23" x1="291.66" y1="124.33" x2="475.15" y2="124.33"/><line class="cls-4" x1="481.07" y1="124.33" x2="487.07" y2="124.33"/><path class="cls-22" d="M246,134.33s-.47,4.51.87,4.69,4.43-4,6.34-7.72S246,134.33,246,134.33Z"/></g></g></svg>